<svg id="etboKsaNjzI1" xmlns="http://www.w3.org/2000/svg" xmlns:xlink="http://www.w3.org/1999/xlink" viewBox="0 0 715.11698 605.02827" shape-rendering="geometricPrecision" text-rendering="geometricPrecision" project-id="52ad558c04c746328a2be46ec485af1b" export-id="b7460ce7637343048561c3ed768244a4" cached="false"><path d="M287.19619,403.37291c-14.152689.015965-25.621729,11.485001-25.6377,25.63769v108.72461c.015971,14.15269,11.48501,25.621729,25.6377,25.6377h168.7246c14.15269-.015971,25.621729-11.48501,25.6377-25.6377v-108.72461c-.015971-14.152689-11.485011-25.621725-25.6377-25.63769h-168.7246Z" transform="translate(-242.442-147.486)" fill="#fff"/><path d="M455.92079,564.37291h-168.7246c-14.704749-.016516-26.621184-11.932951-26.6377-26.6377v-108.72461c.016516-14.704747,11.932953-26.621179,26.6377-26.63769h168.7246c14.704747.016511,26.621184,11.932943,26.6377,26.63769v108.72461c-.016516,14.704749-11.932951,26.621184-26.6377,26.6377Zm-168.7246-160c-13.60063.015419-24.622275,11.03706-24.6377,24.63769v108.72461c.015425,13.600632,11.037068,24.622275,24.6377,24.6377h168.7246c13.600632-.015425,24.622275-11.037068,24.6377-24.6377v-108.72461c-.015425-13.60063-11.03707-24.622271-24.6377-24.63769h-168.7246Z" transform="translate(-242.442-147.486)" fill="#082f49"/><path d="M356.72846,455.82c-2.77585,2.89219-5.43512,5.90084-7.93908,9.02608-5.51272,6.63846-10.94773,13.33522-16.40216,20.01255-3.3969,4.15382-6.79379,8.30777-10.15183,12.46171-1.066432-.684951-2.07876-1.450683-3.02808-2.29046-11.156376-9.68304-12.528099-26.507112-3.087624-37.869481s26.231095-13.096178,37.794184-3.902649c1.001858.781421,1.942774,1.63798,2.81459,2.56225Z" transform="translate(-242.442-147.486)" fill="#fbbf24"/><path d="M457.6222,452.66623v4.03l-1.8-.66-25.33-9.26c-17.54932,12.50119-24.309,6.60882-25-8.62-.3498-7.709-15.28-2.02-22.64.29-2.63327,5.63483-6.422,11.15949-17.64,10.95-3.0636-.05722-4.43,4.21-6.54,6.42-.69.73-1.38,1.46-2.06,2.19-2.04,2.22-6.02349,3.84019-5.88,6.84.44888,9.3844-1.29383,17.78717-16.4,20.01-5.31546.78217-11.05215,7.19538-10.16,12.46c3.5347,20.859-16.41409,30.36285-33.46,41.27-1.493216-.016743-2.979589-.204637-4.43-.56q16.965-21.075,34.09-42.04.39-.48.78-.96c1.34-1.67,2.71-3.35,4.07-5.01995q8.535-10.45506,17.08-20.89c4.14-5.06,8.25-10.14,12.71-14.94.27-.31.55-.61.84-.92.43-.46.86-.91,1.3-1.38c9.69-10.01,21.78-18.86,36.26-19.1c8.52-.13,16.75,2.57,24.67005,5.42005c8.53,3.09,17.03,6.23,25.55,9.35l13.98995,5.1199Z" transform="translate(-242.442-147.486)" fill="#083344"/><path d="M450.55849,477.98783v3.13625l-1.40078-.51365-19.71229-7.20631c-13.65721,9.72866-18.91774,5.14312-19.45547-6.70824-.27222-5.99925-11.89121-1.572-17.61889.22571-2.04926,4.38513-4.99774,8.68453-13.72779,8.52146-2.38415-.04453-3.44751,3.27631-5.08954,4.99619-.537.56809-1.07394,1.13617-1.60313,1.7043-1.58755,1.72763-4.68759,2.98851-4.57592,5.323.34933,7.30312-1.00688,13.84231-12.76276,15.57217-4.13659.60869-8.601,5.59957-7.90673,9.69662c2.75077,16.23287-12.77376,23.62894-26.03922,32.11706-1.162049-.013039-2.318772-.159264-3.44751-.43581q13.20249-16.401,26.5295-32.7163.30353-.37356.607-.74711c1.04283-1.29961,2.109-2.607,3.16735-3.90663q6.64211-8.13632,13.292-16.257c3.22184-3.93778,6.42031-7.89115,9.89118-11.62659.21009-.24124.428-.4747.65368-.716.33463-.358.66926-.7082,1.01167-1.07394c7.541-7.79,16.94963-14.6772,28.21822-14.864c6.63044-.10117,13.03517,2,19.1987,4.218c6.63818,2.40467,13.253,4.84829,19.88348,7.27633l10.88725,3.98449Z" transform="translate(-242.442-147.486)" fill="#083344"/><path d="M444.55849,502.30944v2.24246l-1.00158-.36727-14.09457-5.15263c-9.7651,6.95613-13.52645,3.6774-13.91094-4.79649-.19464-4.28955-8.50238-1.124-12.59775.16139-1.46525,3.13543-3.57346,6.20956-9.81557,6.093-1.7047-.03184-2.465,2.34261-3.63909,3.57235-.38395.40619-.76789.81238-1.14626,1.2186-1.13512,1.23527-3.3517,2.13683-3.27186,3.806.24978,5.22183-.71993,9.89745-9.12555,11.13432-2.95772.43523-6.14984,4.00378-5.65343,6.93323c1.96684,11.60673-9.13341,16.895-18.61841,22.96415-.830875-.009328-1.657942-.11388-2.465-.31161q9.44-11.72691,18.969-23.39262l.434-.5342c.74564-.92924,1.508-1.86405,2.2647-2.79329q4.7492-5.81759,9.504-11.624c2.30366-2.81557,4.59061-5.64228,7.07233-8.31318.15021-.17249.306-.33941.46739-.51191.23926-.256.47853-.50638.72336-.76789c5.39188-5.56994,12.11923-10.4944,20.17643-10.628c4.74086-.07234,9.32033,1.43,13.72734,3.01591c4.7464,1.71938,9.47611,3.4666,14.217,5.20268l7.78446,2.849Z" transform="translate(-242.442-147.486)" fill="#083344"/><path d="M617.81986,343.70595l14.3783,22.16086-11.34195,9.24145-14.37927-23.9221c-.829246-.292206-1.613036-.700136-2.32812-1.21169-2.636215-1.68803-4.12687-4.692096-3.876624-7.812425s2.200615-5.848428,5.072161-7.094743s6.196319-.807742,8.646463,1.140558c2.436938,1.71309,3.870113,4.519558,3.82904,7.49809Z" transform="translate(-242.442-147.486)" fill="#ffb6b6"/><polygon points="574.749,577.747 565.967,583.457 539.765,552.303 552.725,543.876 574.749,577.747" fill="#ffb6b6"/><path d="M823.45617,734.19248l-27.00344,17.55859-.222-.34146c-3.774162-5.804715-2.128592-13.569881,3.67565-17.34477l.00065-.00042l2.499-6.94943l11.6365-2.24191l2.35721-1.53279l7.05643,10.85219Z" transform="translate(-242.442-147.486)" fill="#075985"/><polygon points="424.259,592.709 413.785,592.708 408.802,552.306 424.261,552.307 424.259,592.709" fill="#ffb6b6"/><path d="M667.06906,751.12128l-32.21009-.00123v-.40731c.000486-6.923783,5.613247-12.536472,12.53703-12.53687h.00078l5.88357-4.46356l10.97745,4.46427l2.81175.00007-.00049,12.94463Z" transform="translate(-242.442-147.486)" fill="#075985"/><path d="M775.1202,490.89088l-93.928,2.06521-9.31028,11.63785c0,0-10.98049,5.72794-11.6971,10.23461s-7.05164,84.53081-3.62628,87.54436-6.49517,23.82025-7.22375,25.08921-8.5817,63.89957,0,69.04955l3.22375,21.86124h15c0,0,15.02646-17.38937,12.00246-20.54167s5.62494-13.63452,5.95561-19.25541s3.48856-31.1152,1.04186-35.20292-5.75427-19.42832.45259-25.37554s35.155-79.0295,35.155-79.0295s8.41217,85.6776,8.39241,92.405c-.0257,8.74882,5.71952,4.41886,5.71952,12.09946c0,1.55171,18.70753,41.43415,31.28048,53.90054l26,20l12-9v-13c0,0-11.12071-24.12072-15-28s-18.20313-15.754-18.20313-21.185-6.74293-7.3231-2.20768-14.52355s2.98354-10.30388,1.43183-13.40731s16.293-100.86142,16.293-100.86142L775.1202,490.89088Z" transform="translate(-242.442-147.486)" fill="#082f49"/><path d="M757.33566,313.49948l-40.75355-1.95809-10.42871,17.10869c0,0-30.45991,3.05718-26.10411,14.5135s8.13734,79.48063,1.97935,89.30441-15.608,1.68033-7.39165,20.88126-10.06759,52.984-10.06759,52.984l53.19754,11.21665c0,0,42.67214-12.41371,50.43072-20.17228s14.74128-13.96543,10.08614-16.293-17.84472-3.87929-10.862-14.74129s7.83641-10.3598,7.79749-17.59361-4.11981-25.15877-4.11981-25.15877s26.78006-75.95559,18.71267-78.82357-30.58878-16.1173-30.58878-16.1173l-1.88771-15.1506Z" transform="translate(-242.442-147.486)" fill="#e6e6e6"/><path d="M704.598,336.799c0,0-23.3727-11.10728-26.82052,4.13684s-16.75756,53.48637-16.75756,53.48637-14.74367-8.53562-12.41372-13.18957-10.28563-5.36109-6.20685-13.18957-14.74135-15.51707-14.74135-15.51707l-22.49985,9.31028c0,0,8.71231,13.05766,14.5008,18.81466s-2.85938,6.78506,4.11977,13.77134s21.03186,33.12154,21.03186,33.12154l18.29762,7.62879l51.39026-31.39429L704.598,336.799Z" transform="translate(-242.442-147.486)" fill="#e6e6e6"/><circle r="28.3829" transform="translate(493.513 126.477)" fill="#ffb6b6"/><path d="M754.44384,281.25528c1.34785-.6855,3.06584.51224,3.38832,1.9896.189259,1.519165-.255925,3.049178-1.23069,4.22965-.969211,1.160516-1.837767,2.401512-2.59624,3.70952-.755575,1.350892-.659412,3.017318.24654,4.27233.987195.960617,2.439276,1.266962,3.73039.787c1.259226-.492117,2.372524-1.296555,3.23511-2.3376c5.42625-5.88715,11.0867-15.66044,8.3127-23.17094-.230235-.802743-.32172-1.638904-.27051-2.47244-.05311-.95553-.23017-2.39515.66994-2.72013c2.51192-.9069-4.53616-15.58932-15.41432-18.78356.52983-5.01321-25.64069-12.22437-24.21212-5.93055.25656,1.13023-2.27056.51594-3.42786.57856-8.87927.48051-18.90712,2.71181-18.09858,13.00319.3131,3.98525-1.33546,3.06595-2.659,6.838c2.06192,1.22927,2.73846,3.92491,4.328,2.126s2.94719-4.05186,5.22573-4.80739c2.42615-.80448,5.05846.39894,7.12772,1.89945s3.96769,3.36481,6.3999,4.15077c2.72788.8815,5.7022.26825,8.54669.625c4.0436.50712,7.63428,2.97815,10.30667,6.05487c2.547144,3.186726,4.696908,6.671659,6.40186,10.37791" transform="translate(-242.442-147.486)" fill="#075985"/><path d="M861.22413,752.20682l-315.3575.30731c-.654895-.003796-1.183789-.535764-1.183789-1.19067s.528894-1.186874,1.183789-1.19067l315.3575-.30732c.655259.003289,1.184713.535408,1.184713,1.190675s-.529454,1.187386-1.184713,1.190675Z" transform="translate(-242.442-147.486)" fill="#cacaca"/><path d="M762.19619,503.37291c-14.152689.015965-25.621729,11.485001-25.6377,25.63769v108.72461c.015971,14.15269,11.48501,25.621729,25.6377,25.6377h168.7246c14.15269-.015971,25.621729-11.48501,25.6377-25.6377v-108.72461c-.015971-14.152689-11.485011-25.621725-25.6377-25.63769h-168.7246Z" transform="translate(-242.442-147.486)" fill="#fff"/><path d="M930.92079,664.37291h-168.7246c-14.704749-.016516-26.621184-11.932951-26.6377-26.6377v-108.72461c.016516-14.704747,11.932953-26.621179,26.6377-26.63769h168.7246c14.704747.016511,26.621184,11.932943,26.6377,26.63769v108.72461c-.016516,14.704749-11.932951,26.621184-26.6377,26.6377Zm-168.7246-160c-13.60063.015419-24.622275,11.03706-24.6377,24.63769v108.72461c.015425,13.600632,11.037068,24.622275,24.6377,24.6377h168.7246c13.600632-.015425,24.622275-11.037068,24.6377-24.6377v-108.72461c-.015425-13.60063-11.03707-24.622271-24.6377-24.63769h-168.7246Z" transform="translate(-242.442-147.486)" fill="#082f49"/><ellipse rx="5.25681" ry="7.55666" transform="matrix(.143981-.98958 0.98958 0.143981 586.801727 463.730295)" fill="#e6e6e6"/><ellipse rx="5.2568" ry="7.55666" transform="matrix(.143981-.98958 0.98958 0.143981 635.973613 458.930814)" fill="#082f49"/><ellipse rx="5.25681" ry="7.55666" transform="matrix(.143981-.98958 0.98958 0.143981 573.337804 423.913397)" fill="#fbbf24"/><ellipse rx="4.77581" ry="3.3223" transform="matrix(.007562-.999971 0.999971 0.007562 556.126212 408.670517)" fill="#e6e6e6"/><ellipse rx="4.77581" ry="3.3223" transform="matrix(.007562-.999971 0.999971 0.007562 548.881046 378.306644)" fill="#3f3d56"/><ellipse rx="4.77581" ry="3.3223" transform="matrix(.007562-.999971 0.999971 0.007562 605.226399 431.757459)" fill="#e6e6e6"/><ellipse rx="4.77581" ry="3.3223" transform="matrix(.007562-.999971 0.999971 0.007562 581.464571 443.618495)" fill="#fbbf24"/><ellipse rx="4.77581" ry="3.3223" transform="matrix(.007562-.999971 0.999971 0.007562 614.54109 465.547253)" fill="#082f49"/><ellipse rx="5.25681" ry="7.55666" transform="translate(628.902 445.191)" fill="#e6e6e6"/><ellipse rx="5.2568" ry="7.55666" transform="translate(617.074 397.223)" fill="#082f49"/><ellipse rx="5.25681" ry="7.55666" transform="translate(591.447 464.247)" fill="#fbbf24"/><ellipse rx="4.77581" ry="3.3223" transform="matrix(.990641-.136493 0.136493 0.990641 578.841131 483.473392)" fill="#e6e6e6"/><ellipse rx="4.77581" ry="3.3223" transform="matrix(.990641-.136493 0.136493 0.990641 549.829192 495.016396)" fill="#3f3d56"/><ellipse rx="4.77581" ry="3.3223" transform="matrix(.990641-.136493 0.136493 0.990641 594.611052 431.562431)" fill="#e6e6e6"/><ellipse rx="4.77581" ry="3.3223" transform="matrix(.990641-.136493 0.136493 0.990641 609.773517 453.368442)" fill="#fbbf24"/><ellipse rx="4.77581" ry="3.3223" transform="matrix(.990641-.136493 0.136493 0.990641 626.710271 417.478353)" fill="#082f49"/><path d="M433.19619,184.37291c-14.152689.015965-25.621729,11.485001-25.6377,25.63769v108.72461c.015971,14.15269,11.48501,25.621729,25.6377,25.6377h168.7246c14.15269-.015971,25.621729-11.48501,25.6377-25.6377v-108.72461c-.015971-14.152689-11.485011-25.621725-25.6377-25.63769h-168.7246Z" transform="translate(-242.442-147.486)" fill="#fff"/><path d="M601.92079,345.37291h-168.7246c-14.704673-.016698-26.621002-11.933027-26.6377-26.6377v-108.72461c.016703-14.70467,11.93303-26.620992,26.6377-26.63769h168.7246c14.70467.016698,26.620997,11.93302,26.6377,26.63769v108.72461c-.016698,14.704673-11.933027,26.621002-26.6377,26.6377Zm-168.7246-160c-13.600701.015249-24.622446,11.036989-24.6377,24.63769v108.72461c.015254,13.600702,11.036998,24.622446,24.6377,24.6377h168.7246c13.600702-.015254,24.622446-11.036998,24.6377-24.6377v-108.72461c-.015254-13.600701-11.036999-24.622441-24.6377-24.63769h-168.7246Z" transform="translate(-242.442-147.486)" fill="#082f49"/><path d="M500.37514,292.88055c-4.224149-4.223757-9.970746-6.569265-15.944-6.50764l-.23616.00063c-4.032668.001543-7.993385-1.068074-11.47705-3.09945l-.36251-.21122.292-.30084c1.580683-1.635381,2.900558-3.504047,3.91338-5.54052-1.456248,1.357678-3.440201,1.998586-5.41552,1.74946-2.087028-.248798-3.945396-1.439116-5.04414-3.23086-2.13985-3.47194-4.69058-8.39835-4.69058-12.15133.006735-6.414065,2.710577-12.529607,7.45031-16.85109c3.001432-2.706329,4.709585-6.5619,4.69762-10.60327l-.00119-.28437c-.0004-2.630811.321092-5.251788.95731-7.80451l.0646-.25777.26521.00926c1.710303.058197,3.42151-.08516,5.09829-.42711-1.572818-.192927-3.111452-.602164-4.57229-1.21611l-.28532-.11543.09683-.29237c6.67482-4.13279,21.74181-1.99262,30.48714-22.00138c7.09126-16.22439,32.11167,14.4024,32.11167,32.10542c0,1.80638-1.7877,4.19348-.44944,5.38741c14.46679,12.90647,4.48491,21.1942,1.33779,29.53364-.74669,1.97864.87236,4.1508.87236,6.29144c0,.36322-.00927.73816-.02755,1.11437l-.02787.57841-.48237-.32095c-.954219-.625126-1.838746-1.350646-2.63845-2.16415c1.68039,3.86701,1.518005,8.287174-.4416,12.02046-1.081952,2.271117-2.557926,4.332463-4.35942,6.08837-9.154391,7.833938-22.827866,7.176986-31.18905-1.4985Z" transform="translate(-242.442-147.486)" fill="#0891b2"/><path d="M524.5956,335.92971c.2038-.000244.376441-.150234.40516-.352c1.071493-9.554992,1.135558-19.196152.19114-28.76454-1.41428-15.09441-5.95612-36.83569-19.56169-54.69144-.08855-.116965-.232872-.177668-.378403-.15916s-.270065.113405-.326518.248812-.036212.290662.053071.407068c13.488,17.70157,17.99327,39.28331,19.39759,54.27115.939312,9.504419.876788,19.081256-.18654,28.5726-.016624.117633.018577.236695.096494.326377s.190894.141171.309696.141143Z" transform="translate(-242.442-147.486)" fill="#3f3d56"/><path d="M513.49265,277.30808c.177564.000139.335013-.114103.389965-.28295s-.005101-.353875-.148735-.45827c-3.876783-2.624146-8.064806-4.75608-12.46769-6.34674-6.87865-2.51831-17.33866-4.80134-28.10705-1.37414-.139484.044388-.244691.159819-.275991.302809s.016062.291818.124245.39042.260752.131999.400236.087611c10.54778-3.35677,20.81818-1.1115,27.57678,1.36293c4.3321,1.563387,8.452952,3.659473,12.26768,6.24.069864.050934.1541.078362.24056.07833Z" transform="translate(-242.442-147.486)" fill="#3f3d56"/><path d="M532.24653,230.5992c.012946-.177101-.089656-.342385-.254114-.409361s-.353341-.020397-.467806.115361c-2.896529,3.677733-5.324527,7.701353-7.22812,11.97826-3.00715,6.67943-6.03752,16.94786-3.3947,27.93511.03423.142319.141785.255565.282151.297081s.292219.004993.398355-.09581.150434-.250572.116204-.392891c-2.58847-10.76213.3906-20.84417,3.34533-27.407c1.871312-4.208268,4.258728-8.167472,7.10728-11.78646.055826-.066014.08924-.148056.09542-.23429Z" transform="translate(-242.442-147.486)" fill="#3f3d56"/><path d="M570.61483,215.88077c-5.15377-21.64584-4.29431-42.9657,4.53083-63.85371.193988-2.690736,2.529412-4.716688,5.22058-4.52879L628.59,150.92006c2.690721.193993,4.716659,2.529407,4.52876,5.22056l-4.53084,63.85372c-.193972,2.690729-2.52938,4.716686-5.22054,4.5288l-48.22374-3.42179c-2.690744-.193977-4.716708-2.529405-4.52881-5.22058Z" transform="translate(-242.442-147.486)" fill="#f2f2f2"/><path d="M575.68239,196.85676c-4.12451-10.66664-1.48736-25.33683,2.91283-41.051.181629-2.519979,2.368854-4.41737,4.88923-4.24135l41.44424,2.94074c2.520024.18161,4.417495,2.368812,4.24158,4.88924l-4.03183,56.82112c-.181707,2.520028-2.369022,4.417404-4.88945,4.24133l-25.67385-1.82172c-11.224858-.809151-19.676531-10.551702-18.89275-21.77836Z" transform="translate(-242.442-147.486)" fill="#fff"/><circle r="4.27401" transform="translate(353.535 55.4468)" fill="#075985"/><path d="M612.58,165.54077c-1.01846-2.32146-3.98887-2.8964-6.51009-3.16074-2.585833-.386635-5.211657-.426991-7.80815-.12-2.623221.323896-5.008466,1.681981-6.62581,3.77253-1.83275,2.63369-1.75213,6.12014-1.35456,9.30381.766833,6.124489,2.433207,12.102304,4.94528,17.74029l1.67852,1.49136c8.484865-5.962771,14.203901-15.097764,15.86118-25.335.288009-1.223635.223389-2.503835-.18637-3.69225Z" transform="translate(-242.442-147.486)" fill="#075985"/><path d="M245.61483,582.88077c-5.15377-21.64584-4.29431-42.9657,4.53083-63.85371.193988-2.690736,2.529412-4.716688,5.22058-4.52879L303.59,517.92006c2.690721.193993,4.716659,2.529407,4.52876,5.22056l-4.53084,63.85372c-.193972,2.690729-2.52938,4.716686-5.22054,4.5288l-48.22374-3.42179c-2.690744-.193977-4.716708-2.529405-4.52881-5.22058Z" transform="translate(-242.442-147.486)" fill="#f2f2f2"/><path d="M250.68239,563.85676c-4.12451-10.66664-1.48736-25.33683,2.91283-41.051.181629-2.519979,2.368854-4.41737,4.88923-4.24135l41.44424,2.94074c2.520024.18161,4.417495,2.368812,4.24158,4.88924l-4.03183,56.82112c-.181707,2.520028-2.369022,4.417404-4.88945,4.24133l-25.67385-1.82172c-11.224858-.809151-19.676531-10.551702-18.89275-21.77836Z" transform="translate(-242.442-147.486)" fill="#fff"/><path d="M294.28792,537.60423c-9.73822,4.79517-17.43262,9.23779-21.47748,19.26459-2.60577-6.00556-5.21154-8.01105-7.81732-14.01654-.76648-1.76654-3.35181-.24073-2.59039,1.5141q4.62662,10.66314,9.25335,21.32623c.54407,1.254,2.40174.76373,2.74158-.35834c3.373275-10.96723,11.115495-20.060503,21.40442-25.13959c1.73192-.85284.2135-3.44116-1.51416-2.59045Z" transform="translate(-242.442-147.486)" fill="#075985"/><path d="M751.61483,573.88077c-5.15377-21.64584-4.29431-42.9657,4.53083-63.85371.193988-2.690736,2.529412-4.716688,5.22058-4.52879L809.59,508.92006c2.690721.193993,4.716659,2.529407,4.52876,5.22056l-4.53084,63.85372c-.193972,2.690729-2.52938,4.716686-5.22054,4.5288l-48.22374-3.42179c-2.690744-.193977-4.716708-2.529405-4.52881-5.22058Z" transform="translate(-242.442-147.486)" fill="#f2f2f2"/><path d="M756.68239,554.85676c-4.12451-10.66664-1.48736-25.33683,2.91283-41.051.181629-2.519979,2.368854-4.41737,4.88923-4.24135l41.44424,2.94074c2.520024.18161,4.417495,2.368812,4.24158,4.88924l-4.03183,56.82112c-.181707,2.520028-2.369022,4.417404-4.88945,4.24133l-25.67385-1.82172c-11.224858-.809151-19.676531-10.551702-18.89275-21.77836Z" transform="translate(-242.442-147.486)" fill="#fff"/><path d="M800.28792,528.60423c-9.73822,4.79517-17.43262,9.23779-21.47748,19.26459-2.60577-6.00556-5.21154-8.01105-7.81732-14.01654-.76648-1.76654-3.35181-.24073-2.59039,1.5141q4.62661,10.66314,9.25335,21.32623c.54407,1.254,2.40174.76373,2.74158-.35834c3.373275-10.96723,11.115495-20.060503,21.40442-25.13959c1.73192-.85284.2135-3.44116-1.51416-2.59045Z" transform="translate(-245.440169-147.486)" fill="#075985"/><path d="M767.83633,499.42864l13.228-21.61655l13.40292,5.83371-14.79868,22.35675c.612096,4.340135-2.182734,8.432035-6.44817,9.440741s-8.597058-1.397905-9.993822-5.552479.601224-8.689193,4.609712-10.462172Z" transform="translate(-242.442-147.486)" fill="#ffb6b6"/><path d="M769.12013,348.15188c0,0,18.47395-6.72154,20.80152-2.0664s14.82689,89.60233,13.23237,94.06809-11.68065-7.94795-1.59451,4.46576s8.53443,9.31029,6.20686,11.63786-11.92763,34.91968-11.92763,34.91968L769.12013,487.658l9.16367-50.79726L766.481,373.409l2.63913-25.25712Z" transform="translate(-242.442-147.486)" fill="#e6e6e6"/></svg>
