<svg id="e29t8NugwdL1" xmlns="http://www.w3.org/2000/svg" xmlns:xlink="http://www.w3.org/1999/xlink" viewBox="0 0 855.15669 581.90681" shape-rendering="geometricPrecision" text-rendering="geometricPrecision" project-id="3b74f823f19f4ea18a372acb832622b4" export-id="2f677ec3de1343b9a37b8048eae5b20b" cached="false"><path d="M696.92661,503.79661c3.037543,0,5.499967,2.462397,5.5,5.49994v53.20618h105.5c3.037566,0,5.5,2.462434,5.5,5.5s-2.462434,5.5-5.5,5.5h-105.5v184h-11v-248.20618c.000033-3.037543,2.462457-5.49994,5.5-5.49994Z" transform="translate(-177.185-177.559)" fill="#e6e6e6"/><path d="M403.33253,756.2532l-19.83221.54759c-3.012485.154914-5.992862-.6806-8.48582-2.3789-2.15367-1.602-3.14159-3.76763-2.70847-5.94251l3.90258-19.61285c.73546-3.7,5.26958-6.49709,10.77994-6.6493l10.95246-.30244c5.51034-.15215,10.19188,2.39045,11.1305,6.04428l4.979,19.36761c.55248,2.14765-.31449,4.36454-2.37642,6.08293-2.395421,1.833285-5.325131,2.832006-8.34156,2.84359Z" transform="translate(-177.969335-178.29064)" fill="#082f49"/><path d="M523.96291,755.69264l-19.83215.54763c-3.012486.154912-5.992864-.680606-8.48582-2.37891-2.15362-1.602-3.14159-3.76763-2.70848-5.94251l3.90259-19.61285c.73546-3.7,5.2696-6.49714,10.77993-6.6493l10.95246-.30244c5.5104-.15213,10.19188,2.39045,11.1305,6.04428l4.979,19.36762c.55246,2.14769-.31448,4.36453-2.37641,6.08292-2.395437,1.833296-5.325172,2.832008-8.34162,2.84356Z" transform="translate(-177.185-179.5934)" fill="#082f49"/><path d="M334.46727,589.18826c-1.866599-.804359-2.922841-2.798429-2.53961-4.794505s2.102847-3.457203,4.13461-3.513105L561.53,574.65488c1.147969-.031952,2.26161.393444,3.095926,1.182601s1.320961,1.877429,1.352874,3.025399v.00038c.063135,2.389636-1.819763,4.379535-4.20924,4.44844l-.00045-.00019-225.46776,6.22569c-.62952.019193-1.255589-.099919-1.83408-.34894Z" transform="translate(-177.185-177.559)" fill="#082f49"/><rect width="64.4738" height="217.68" rx="0" ry="0" transform="matrix(.999619-.027603 0.027603 0.999619 176.041741 338.767905)" fill="#e6e6e6"/><polygon points="242.126,333.079 229.737,366.828 229.748,520.587 244.844,524.916 242.126,333.079" fill="#ccc"/><path d="M385.11593,457.6809c-12.05743.34244-21.25689,21.20913-21.03567,29.35186l.407,14.74161l43.65913-1.20557-.407-14.74161c-.22854-8.14254-10.56551-28.46974-22.62346-28.14629Z" transform="translate(-177.185-177.559)" fill="#082f49"/><path d="M354.06345,606.43974c-4.690545.124116-8.596479-3.571884-8.73142-8.26213l-.66249-23.99087c-.08382-3.035602,1.458202-5.885331,4.0452-7.475722s5.825947-1.679826,8.496765-.234615s4.367745,4.205505,4.451565,7.241107l.66248,23.99087c.124094,4.690515-3.571885,8.596413-8.2621,8.73136Z" transform="translate(-177.185-177.559)" fill="#082f49"/><polyline points="193.233,339.284 192.928,323.429 197.086,323.326 197.391,339.13 201.16,569.476 197.001,569.591" fill="#082f49"/><path d="M425.06668,553.91991l-74.73856,2.0638c-7.13852-8.70518-7.78692-45.7926,7.11089-52.85111l5.8423-9.92024l45.04258-2.19882l5.26415,10.44507c7.41067,6.30589,11.23187,43.16176,11.47864,52.4613Z" transform="translate(-177.185-177.559)" fill="#e6e6e6"/><path d="M396.9363,536.13244l-18.90007.52192c-3.64713.10071-6.74793-4.631-6.91128-10.54634s2.67166-10.811,6.3188-10.91168l18.90006-.52192c3.64714-.10071,6.74794,4.631,6.91129,10.54634s-2.67166,10.81097-6.3188,10.91168Z" transform="translate(-177.185-177.559)" fill="#0284c7"/><polygon points="183.151,465.568 144.192,493.088 137.386,555.138 182.834,539.953 183.151,465.568" fill="#e6e6e6"/><rect width="64.4738" height="217.68" rx="0" ry="0" transform="matrix(.999619-.027603 0.027603 0.999619 300.452774 336.103804)" fill="#e6e6e6"/><polygon points="301.996,333.806 315.257,367.222 319.236,520.93 304.257,525.649 301.996,333.806" fill="#ccc"/><ellipse rx="8.44737" ry="11.3275" transform="translate(397.132 262.584)" fill="#e6e6e6"/><path d="M508.26852,455.05074c-12.05744.34245-21.25689,21.20914-21.03567,29.35186l.407,14.74161l43.65914-1.20557L530.892,483.197c-.22862-8.14252-10.56552-28.46974-22.62348-28.14626Z" transform="translate(-176.061317-177.559)" fill="#082f49"/><polyline points="343.567,344.247 343.262,328.392 347.42,328.288 347.725,344.093 351.494,574.439 347.335,574.554" fill="#082f49"/><path d="M548.21927,551.28975l-74.7385,2.0638c-1.30314-7.87683.3826-44.63292,7.11089-52.85111l5.8423-9.92024l45.04259-2.19882l5.26414,10.44507c13.29871,1.08373,17.95024,37.20317,11.47858,52.4613Z" transform="translate(-177.185-177.559)" fill="#e6e6e6"/><path d="M520.18032,536.813l-18.90007.52192c-3.64714.10071-6.76843-5.37372-6.957-12.20169s2.626-12.46635,6.273-12.56708l18.90007-.52192c3.64714-.10071,6.76843,5.37372,6.957,12.20169s-2.62592,12.4663-6.273,12.56708Z" transform="translate(-177.185-179.083495)" fill="#0284c7"/><polygon points="368.086,449.662 405.749,478.93 409.715,541.227 365.009,523.983 368.086,449.662" fill="#e6e6e6"/><path d="M534.75357,338.67976c-40.4127,0-86.85713-44.8462-127.94893-23.53858-124.415,64.51367-107.28857-43.43994-143.032-83.58887l1.17348-2.35367c27.05948,103.21821,51.543,267.6924,142.3988,83.20476c22.75922-46.21386,97.45512,25.21994,141.42331,23.11264l.0763,2.8291q-6.96503.336-14.09096.33462Z" transform="translate(-177.185-177.559)" fill="#f2f2f2"/><path d="M631.75057,345.0259c-32.21551,24.39973-96.31582,16.69148-116.20791,58.48687-60.228,126.54525-111.754,30.14828-164.48777,19.72362l-.48561-2.58476c52.79008,4.37844,109.41447-2.4151,163.75111-19.64751c49.10434-15.57131,92.91452-38.73551,126.692-66.96179l1.76894,2.20919q-5.3494,4.4731-11.03076,8.77438Z" transform="translate(-177.185-177.559)" fill="#f2f2f2"/><ellipse rx="8.44737" ry="11.3275" transform="translate(104.132 150.584)" fill="#e6e6e6"/><ellipse rx="8.44737" ry="11.3275" transform="translate(366.132 58.5836)" fill="#e6e6e6"/><path d="M358.656,385.18822c-3.862,2.57318-7.81469-3.55124-3.87848-6.0102c3.86185-2.57302,7.81455,3.55143,3.87848,6.0102Z" transform="translate(-177.185-177.559)" fill="#e6e6e6"/><path d="M501.656,184.18823c-3.862,2.57319-7.81469-3.55124-3.87848-6.01018c3.86185-2.57305,7.81455,3.55139,3.87848,6.01018Z" transform="translate(-177.185-177.559)" fill="#e6e6e6"/><polygon points="408.749,125.801 406.292,125.262 406.83,122.804 405.192,122.445 404.653,124.903 402.196,124.365 401.837,126.003 404.294,126.542 403.756,128.999 405.394,129.358 405.933,126.9 408.39,127.439 408.749,125.801" fill="#e6e6e6"/><circle r="10.7023" transform="translate(183.535 32.7371)" fill="#ff6584"/><path d="M439.00118,196.74951c-12.05744.34245-21.2569,21.20915-21.03568,29.35188l.407,14.74161l43.65913-1.20556-.40711-14.74162c-.22852-8.14258-10.56539-28.46976-22.62334-28.14631Z" transform="translate(-177.185-177.559)" fill="#082f49"/><path d="M464.99807,754.96821l-19.83215.54763c-3.012486.15491-5.992863-.680607-8.48582-2.37891-2.15368-1.602-3.14165-3.76765-2.70848-5.94251l3.90259-19.61285c.73551-3.7,5.2696-6.49714,10.78-6.64927l10.95246-.30244c5.51039-.15213,10.19188,2.39044,11.1305,6.04427l4.9789,19.36752c.55246,2.14769-.31448,4.36453-2.37641,6.08292-2.395418,1.833319-5.325143,2.83206-8.34159,2.84364Z" transform="translate(-177.185-177.559)" fill="#082f49"/><rect width="64.4738" height="440.016" rx="0" ry="0" transform="matrix(.999619-.027603 0.027603 0.999619 232.207238 114.815219)" fill="#e6e6e6"/><polyline points="270.868,325.949 270.563,310.094 274.721,309.991 275.026,325.795 278.795,556.141 274.636,556.256" fill="#082f49"/><path d="M486.53068,330.85065L399.20479,333.262c-1.52254-9.20342.447-52.15,8.30847-61.75224l2.15433-11.462l60.29654-1.66505l3.15478,11.17106c8.6586,7.36803,13.12339,50.43109,13.41177,61.29688Z" transform="translate(-177.185-177.559)" fill="#e6e6e6"/><path d="M471.87015,259.73526l-62.22262,1.7182c-2.29663.06335-4.1931-1.14245-4.23579-2.69339-.005721-.223408.026971-.446139.09665-.65848l9.66494-29.77518c.41385-1.275,2.06138-2.21137,3.98418-2.26446l41.26444-1.13939c1.9228-.05308,3.61946.79092,4.10307,2.04115l11.29335,29.19646c.57762,1.4933-.75639,3.04723-2.97964,3.47082-.319552.060605-.643451.095474-.96858.10427Z" transform="translate(-177.185-177.559)" fill="#e6e6e6"/><path d="M415.78556,501.48553c-.561715-.240563-1.092481-.547766-1.58088-.915-1.418513-.995203-2.296857-2.590641-2.37913-4.32149l-2.26085-81.87758c-.0931-3.38939,3.22545-6.24061,7.39767-6.356l55.70319-1.53841c4.17306-.11605,7.64291,2.54888,7.73709,5.93821l2.26073,81.878c.013537,1.732674-.775382,3.374118-2.13683,4.44594-1.488102,1.211908-3.342302,1.884975-5.2613,1.90983l-55.70234,1.53767c-1.2951.043428-2.584112-.195845-3.77735-.70117Z" transform="translate(-177.185-177.559)" fill="#082f49"/><path d="M451.438,254.46588l-18.90007.52192c-3.64714.1007-6.7311-4.01989-6.87367-9.18422s2.70926-9.44884,6.3564-9.54955l18.90007-.52192c3.64714-.10071,6.7311,4.01989,6.87367,9.18422s-2.70922,9.44884-6.3564,9.54955Z" transform="translate(-177.185-177.559)" fill="#0284c7"/><path d="M898.19394,740.08733h-22v-159.87733c18.40229-1.31952,32.23267-6.95472,32.23267-13.70722c0-7.732-18.13245-14-40.5-14s-40.5,6.268-40.5,14c0,6.81751,14.09991,12.49408,32.76733,13.74207v159.84248h-22c-4.418278,0-8,3.581722-8,8s3.581722,8,8,8h60c4.418278,0,8-3.581722,8-8s-3.581722-8-8-8Z" transform="translate(-177.185-177.559)" fill="#e6e6e6"/><polygon points="676.847,481.363 669.62,489.238 635.806,465.112 646.471,453.489 676.847,481.363" fill="#a0616a"/><path d="M835.5538,679.70713c.143485,3.557173,1.704794,6.908924,4.33559,9.30746l.31814.296l9.47771-10.32853l13.82067-15.06363-10.20277-9.36667-1.84225,2.01241-.19237.20719-9.1817,4.343-1.94585.92483-.33295.15534-.73246,7.86477v.0074c-2.418184,2.61181-3.686939,6.084888-3.52176,9.64043Z" transform="translate(-177.185-177.559)" fill="#2f2e41"/><polygon points="714.287,559.924 704.06,563.031 687.21,525.063 702.304,520.478 714.287,559.924" fill="#a0616a"/><path d="M863.98679,756.2017l.12581.42173l32.97573-10.01775-4.02487-13.251-2.60429.79166-.27375.08142-12.25956-1.12461-.36253-.02958-4.639,6.3998c-7.086861,2.152067-11.08802,9.640975-8.93758,16.72833Z" transform="translate(-177.185-177.559)" fill="#2f2e41"/><path d="M807.14234,538.68707c0,0-65.294,63.042-24.01623,82.55557h12.75817c2.773214-9.014297,7.035897-17.500751,12.61132-25.10752c1.20538-1.57743,5.72106-1.257,6.97511-2.79432c7.657-9.38674,15.95823-17.44824,21.69136-17.12816l-1.37151,43.558-2.21956,15.53721c-1.16546,8.03186,31.7271,78.16146,31.7271,78.16146l20.6742-8.12531c0,0-21.53993-57.76213-21.79225-66.08937L881.44161,547.693l-74.29927-9.00593Z" transform="translate(-177.185-177.559)" fill="#082f49"/><path d="M801.69759,541.79634c.332875.474767.767674.869113,1.27259,1.15419.83194.47035,1.73356.805032,2.6709.99144c14.7011,3.33675,62.72574,10.25451,75.19244,6.9547c1.53153-.39951,2.53033-.96181,2.85587-1.70168c1.04323-2.33795.91-12.21517.296-24.14179-.111-2.2344-2.57476-4.65373-2.72269-6.99173-.10359-1.75347,2.10859-3.40335,1.99023-5.18645-.81387-12.05979-1.86447-24.34893-2.56735-32.11751-.4439-4.99408-.74727-8.11629-.74727-8.11629l7.58361-47.81746-.35512-.58452-.39951-.19973-24.45256-12.10422-1.33175-3.40336c-.789537-2.004993-2.720857-3.326742-4.87568-3.3368l-16.10687-.06656c-1.695426-.009341-3.290961.800814-4.2838,2.17516l-4.36522,6.04473-28.85472,18.49661.111.34031l13.53951,41.20306.06657,3.211v.0074l.5031,25.82125-1.39831,3.49959l1.57591,5.74136c0,0-.72509,6.71053-4.60938,11.69726-3.52177,4.528-8.00534,9.2483-10.03257,13.0808v.0074c-1.1246,2.11605-1.50194,3.9509-.55493,5.34184Z" transform="translate(-177.185-177.559)" fill="#075985"/><path d="M779.991,617.49777l3.49,4.40992c0,0,32.09783,22.4561,33.2,24.55472l5.0727,4.80008l12.274-13.1203-6.383-8.00038c-5.108042-6.402412-11.707671-11.45505-19.22112-14.71558v0l-9.78231-8.67888L779.991,617.49777Z" transform="translate(-177.185-177.559)" fill="#082f49"/><path d="M895.61028,556.69023l-5.84513-56.57768-1.54279-23.28555l16.36037-2.95828c0,0-.64826,16.64985,1.495,26.04387c2.115,9.2699.28058,55.53545.14989,56.77256c2.45972,2.199534,3.307305,5.68864,2.130801,8.771497s-4.133126,5.120172-7.432849,5.121742-6.258281-2.032932-7.437718-5.114669-.335171-6.571647,2.122456-8.77352Z" transform="translate(-177.185-177.559)" fill="#a0616a"/><path d="M876.128,471.0061l4.55755,9.75141l1.59073,3.396l4.2838,22.43266l2.13822,2.27139l1.84225,7.33208.86563-.17756l15.61117-3.2332l4.55014-.93965c2.114213-3.522691,1.458681-8.046554-1.56849-10.82423-.31073-.28115-.56966-.5549-.5623-.81383.259-15.60377-.69547-44.096-9.31487-55.8228-2.73751-3.72154-4.38-7.42827-6.76978-10.0178-.00741-.00736-.00741-.01476-.01477-.01476l-5.81537-9.52206-.35512-.58452-.39951-.19973L876.128,471.0061Z" transform="translate(-177.185-177.559)" fill="#075985"/><circle r="21.4306" transform="translate(672.128 202.131)" fill="#a0616a"/><path d="M874.76076,375.07894c.62766-3.6014,1.11688-8.27006-.6812-12.4204-1.51934-3.49282-5.32013-6.76762-9.54488-6.32591.40853-1.60783-.122225-3.308748-1.37264-4.39892-1.375766-1.080103-2.978781-1.833792-4.6882-2.20425-3.971-1.16718-8.08439-2.37721-12.33157-2.39969-4.7667-.0259-8.9903,1.60706-11.58015,4.48623l-.0634.09312-.77645,1.85365c-.210212.503199-.629816.889415-1.14868,1.05728-.520267.171567-1.089972.101816-1.55348-.1902-.511051-.314435-1.150279-.335173-1.680637-.054524s-.87276.820838-.900233,1.420244l-.04131.791-1.112-.44327c-.567877-.229485-1.215479-.133669-1.692574.250424s-.708961.996308-.606006,1.600086l.148.941c-.483129-.087662-.981147.02461-1.37993.31109-.57979.426039-.817964,1.177823-.58927,1.86.862879,2.461581,2.336937,4.663618,4.28388,6.39952.873833.789767,1.852475,1.455166,2.90823,1.97737q.32943.16611.68487.3146c8.540516,3.661862,17.678439,5.731804,26.96328,6.10778-.878037,1.674858-1.445327,3.494956-1.67438,5.37209-.258458,2.171047.71012,4.306019,2.514,5.54144.384039.219491.786986.404104,1.204.55162.398521.146996.784607.32573,1.15454.53448c1.103781.667541,1.765792,1.87485,1.735168,3.164425s-.749195,2.4641-1.883418,3.078495s1.59493,1.94715,1.85017,1.91406c1.015854-.230508,1.933894-.773659,2.625-1.55306c4.64126-4.50652,7.74644-11.10697,9.22927-19.62978Z" transform="translate(-177.185-177.559)" fill="#2f2e41"/><path d="M968.58324,706.35184l.93143-20.94324c9.709835-5.19017,20.539847-7.931663,31.54965-7.98643-15.15276,12.3885-13.25912,36.26927-23.53233,52.92887-6.571095,10.475513-17.549732,17.393972-29.83528,18.80144l-12.68037,7.76378c-3.521313-19.630699,1.729793-39.818926,14.36987-55.24593c3.54621-4.241687,7.612463-8.019914,12.10279-11.24551c3.037,8.00788,7.09424,15.92702,7.09424,15.92702Z" transform="translate(-177.185-177.559)" fill="#f2f2f2"/><path d="M1032.34212,757.91264c.001232.412328-.162024.808123-.453592,1.099677s-.68737.454794-1.099698.453543h-852.05018c-.85782,0-1.55322-.6954-1.55322-1.55322s.6954-1.55322,1.55322-1.55322h852.05018c.412323-.001235.808116.162009,1.09968.45356s.454826.687337.45361,1.09966Z" transform="translate(-177.185-177.559)" fill="#ccc"/><path d="M543.68349,601.12509c-4.690547.124111-8.596479-3.571892-8.73142-8.26214l-.66249-23.99087c-.123475-4.688566,3.574049-8.591086,8.262454-8.720535s8.595633,3.563099,8.731056,8.251335l.66249,23.99087c.124066,4.690497-3.571894,8.596371-8.26209,8.73134Z" transform="translate(-177.185-177.559)" fill="#082f49"/><path d="M918.53992,688.80705q-19.36817,0-42.45654-1.46386c-79.61377-5.05567-182.7378-22.63282-290.376-49.49219-107.6377-26.85938-206.93018-59.79395-279.58545-92.73438-35.39258-16.04687-62.55615-31.23633-80.73535-45.14746-19.24707-14.727-27.666-27.564-25.02393-38.15283c5.148-20.62891,50.731-25.14209,88.064-25.29541l.01269,3c-51.26806.21045-81.51367,8.38672-85.16552,23.022-4.65186,18.64014,33.28662,47.74073,104.08691,79.84131c72.49561,32.86813,171.60547,65.73923,279.07321,92.55661c107.46729,26.81641,210.40137,44.36328,289.83985,49.4082c77.57861,4.92774,124.74316-2.9375,129.39453-21.57812c3.86181-15.47656-21.59815-38.27539-71.68946-64.19824l1.37891-2.66407c36.397,18.83594,78.64551,45.85157,73.22168,67.58887-2.64252,10.58887-16.10541,17.96485-40.01508,21.92285-13.62943,2.25586-30.37015,3.38672-50.02445,3.38672Z" transform="translate(-177.185-177.559)" fill="#ccc"/><path d="M233.244,669.1541c-10.24609,0-16.90722-2.5459-19.85547-7.60742-5.814-9.98047,3.92334-27.49317,28.94092-52.05079l2.10156,2.14063c-23.23877,22.8125-33.34277,40.001-28.45068,48.40039c3.0957,5.3125,12.30859,7.2168,26.64844,5.50391c14.23535-1.69922,33.10058-6.76465,56.07177-15.05469c47.291-17.06738,106.62256-45.85645,167.065-81.06445c60.44043-35.207,114.75048-72.61621,152.92675-105.335c7.33252-6.28565,13.98731-12.33252,19.7793-17.9712c7.603022-7.221687,14.617181-15.039015,20.97559-23.37744c8.563-11.627,11.45312-20.58105,8.35791-25.89453-5.16992-8.87451-26.8877-8.04-61.15625,2.353l-.87012-2.8711c36.76611-11.14892,58.50732-11.48339,64.61865-.99169c3.79737,6.51855.92578,16.3374-8.53418,29.18359-6.455744,8.470527-13.57802,16.411652-21.29883,23.74756-5.83691,5.6831-12.53906,11.77246-19.91992,18.09961-38.30957,32.83349-92.77685,70.354-153.36914,105.64892-60.59375,35.29688-120.1001,64.168-167.55615,81.29492-23.18506,8.36719-42.27344,13.48536-56.73486,15.21094-3.231432.403207-6.483859.615189-9.74029.63484Z" transform="translate(-177.185-177.559)" fill="#ccc"/><path d="M780.78711,545.98171c-7.41429-.1477-47.23975-1.29075-53.77054-1.00966-.36944-1.29329-12.74985,14.57255-13.05093,14.6709-.407286.429943-.578234,1.03207-.457625,1.611885s.517485,1.063828,1.062435,1.295695c.72777.44213,64.93165-.7456,65.70956-.59063.686719-.010858,1.30637-.414554,1.59378-1.03833l.42913-.96116c.04459-1.64432.58292-10.048.09966-11.48483.240921-.54787.190062-1.180184-.135329-1.682504s-.881654-.807245-1.480141-.811366Z" transform="translate(-177.185-177.559)" fill="#e6e6e6"/><path style="isolation:isolate" d="M782.30283,559.95889c-.37681.90549-.85882,2.04315-2.02291,2.00138l-65.03159.7298c-.625507-.00704-1.202175-.339408-1.521826-.877118s-.336117-1.2031-.043454-1.755962l68.61978-.0981Z" transform="translate(-177.185-177.559)" opacity="0.17"/><path d="M727.32042,544.77735c-.7-1.21052-18.08617-87.23831-19.53728-87.95769l-11.87031-14.52105-1.06095-.79779c-1.47534-.81046-5.01435-.26248-4.69563,1.99086v0c2.7887,13.37007,20.7256,89.51848,21.11867,101.39039l2.15914,15.12429c.077865.520446.372262.983665.810409,1.275136s.979146.38399,1.489251.254684c1.259198-.135733,2.35317-.926202,2.87739-2.07911.16189-.53374,9.5221-14.36984,8.70931-14.67972Z" transform="translate(-177.185-177.559)" fill="#e6e6e6"/><path style="isolation:isolate" d="M695.91,442.29922l22.70339,117.16093c-.75925,1.92172-4.312,3.268-5.13948.74717-.01446-.00347-23.29114-116.64351-23.31482-116.71323-.24809-2.80709,4.39042-2.89617,5.75091-1.19487Z" transform="translate(-177.185-177.559)" opacity="0.17"/><polygon points="519.409,269.531 530.939,285.603 543.881,347.068 537.865,352.316 519.409,269.531" fill="#06b6d4"/><path d="M773.34421,554.26935l3.19.13c.049881-.934281.204175-1.860043.46-2.76.48-2.28.91-4.99-1.08-4.98-1.35-.13-1.81,1.58-2.05,3.44-.061905,1.401639-.235792,2.796083-.52,4.17Z" transform="translate(-177.185-177.559)" fill="#2f2e41"/><path d="M755.04423,549.97937l2.15.07995l1.04.04c-.02-1.14.51-3.49-.78-4.07-.205218-.088228-.426634-.132511-.65-.13-1.21-.07-1.57.85-1.68006,1.91-.06994.64-.04,1.32-.06,1.85.00001.11003-.00993.22001-.01994.32005Z" transform="translate(-177.185-177.559)" fill="#2f2e41"/><path d="M748.67423,549.71936l2.16.09l1.03.04c-.02-1.31.67-4.17-1.43005-4.21-1.94-.11-1.69,2.36-1.74,3.76.00001.10998-.01.21996-.01995.32Z" transform="translate(-177.185-177.559)" fill="#2f2e41"/><path d="M742.30424,549.46936l2.15.08l1.04.04c-.02-1.3.67-4.16-1.43-4.2-1.94-.12-1.69,2.35-1.74,3.76-.00005.10998-.01006.21996-.02.32Z" transform="translate(-177.185-177.559)" fill="#2f2e41"/><path d="M735.93418,549.20935l2.16.09l1.03.04c-.02-1.31.67-4.16-1.43-4.21-1.94-.11-1.69,2.36005-1.74,3.76.00002.10998-.00999.22002-.02.32Z" transform="translate(-177.185-177.559)" fill="#2f2e41"/><path d="M729.56418,548.95935l2.15.08l1.04.04c-.02-1.2.56-3.71-.98-4.14h-.01c-.142762-.042258-.291136-.062491-.44-.06-.181543-.016156-.36451.000786-.54.05h-.01c-1.34.35-1.15,2.45-1.19,3.71.00002.10998-.00999.22002-.02.32Z" transform="translate(-177.185-177.559)" fill="#2f2e41"/><path d="M766.91422,548.27936l3.19.13c0-.12,0-.25.01-.4.079006-.760772.092388-1.526933.04-2.29-.11-.84-.47-1.5-1.48-1.52-1.03-.06-1.44.6-1.6,1.45-.037169.144562-.063905.291607-.08.44v.01c-.08.77997-.03001,1.62-.08,2.18Z" transform="translate(-177.185-177.559)" fill="#2f2e41"/><path d="M760.54423,548.01935l3.19.13c.067688-.858229.087719-1.719552.06-2.58-.09-.88-.44-1.6-1.49-1.62-1.06006-.07-1.47.65-1.63,1.54-.15002.86001-.07001,1.88998-.13,2.53Z" transform="translate(-177.185-177.559)" fill="#2f2e41"/><path d="M754.17423,547.76935l.95.04l2.24.09c-.01-.48.08-1.18.09-1.87.008505-.206878.00182-.414101-.02-.62-.08-.93-.41-1.7-1.5-1.72-1.11-.06-1.5.71-1.63995,1.65-.14007.83997-.06005,1.81-.12005,2.43Z" transform="translate(-177.185-177.559)" fill="#2f2e41"/><path d="M766.97422,554.01935l3.19.12c-.01-1.3.67-4.16-1.43-4.2-2.10003-.13003-1.64001,2.77-1.76,4.08Z" transform="translate(-177.185-177.559)" fill="#2f2e41"/><path d="M760.60422,553.75934l3.19.13c-.01-1.31.67-4.17-1.43-4.21-2.10002-.12002-1.64,2.78001-1.76,4.08Z" transform="translate(-177.185-177.559)" fill="#2f2e41"/><path d="M754.23423,553.50934l3.19.12c-.01-.93.34-2.65-.23-3.57-.253364-.415066-.714474-.657149-1.2-.63-.327369-.034607-.6565.046791-.93.23-1.02.67-.73003,2.79-.83,3.85Z" transform="translate(-177.185-177.559)" fill="#2f2e41"/><path d="M747.86423,553.24933l3.19.13c-.01-.93.32995-2.63995-.22-3.57-.253135-.42153-.719103-.667973-1.21-.63995-.327464-.036019-.657073.045498-.93.23-1.02.68997-.73002,2.79996-.83,3.84995Z" transform="translate(-177.185-177.559)" fill="#2f2e41"/><path d="M741.49418,552.99933l3.19.12c-.01-.93.34-2.65-.23-3.56994-.253324-.415107-.714462-.657204-1.2-.63-.327371-.034637-.656512.046763-.93.23-1.01994.66994-.72997,2.78994-.83,3.84994Z" transform="translate(-177.185-177.559)" fill="#2f2e41"/><path d="M735.12418,552.73938l3.19.12994c-.00994-.93.33-2.63995-.22-3.56994-.25133-.423438-.718541-.670558-1.21-.64-.327465-.036026-.657076.04549-.93.23-1.02.68996-.72996,2.79995-.83,3.85Z" transform="translate(-177.185-177.559)" fill="#2f2e41"/><path d="M728.75419,552.48938l3.19.12c-.01-.93005.33-2.64-.23-3.57-.25156-.416985-.713919-.659723-1.2-.63-.327372-.034654-.656518.046748-.93.23-1.02001.67995-.72997,2.78994-.83,3.85Z" transform="translate(-177.185-177.559)" fill="#2f2e41"/><path d="M764.7803,543.24528l24.31306-51.42056L798.286,470.375l-14.44775-8.22653c0,0-4.92111,15.91917-10.06408,24.06724-5.07509,8.04038-18.71837,52.28659-19.00618,53.49683-3.050833,1.257216-5.009646,4.266423-4.924388,7.565046s2.196904,6.202622,5.30861,7.300559s6.578193.162132,8.714635-2.352584s2.4998-6.086864.913473-8.980261Z" transform="translate(-177.185-177.559)" fill="#a0616a"/><path d="M764.63224,495.6377l18.38757,11.09293l4.17-6.30274l2.77738-1.43257l11.49437-19.73725l10.16248-10.35367l13.42726-42.9193-17.47011,2.621-.02283.00749c-3.11234,1.65072-5.89632,4.60186-9.71281,7.20274-12.02605,8.19551-22.39546,34.75188-27.3355,49.55869-.08107.243-.4139.41243-.80035.57792-3.776318,1.614255-5.897732,5.660601-5.0775,9.68473Z" transform="translate(-177.185-177.559)" fill="#075985"/></svg>
